<svg height="512" viewBox="0 0 128 128" width="512" xmlns="http://www.w3.org/2000/svg"><path d="m123.959 71.411h-14.417v-20.711a1 1 0 0 0 -1-1h-15.078l-21.756-10.164v-9.188h11.675a10.859 10.859 0 1 0 0-21.717h-25.35a10.87 10.87 0 0 0 -10.808 9.858h-39.184a1 1 0 0 0 -1 1v61.372a1 1 0 0 0 1 1h8.417v7.45a1 1 0 0 0 1 1h31.167a1 1 0 0 0 1-1v-16.9a1 1 0 0 0 -1-1h-14.75v-19.711h14.077l22.333 10.423a1 1 0 0 0 .845 0l22.334-10.423h14.078v19.711h-14.75a1 1 0 0 0 -1 1v16.9a1 1 0 0 0 1 1h14.75v18.557h-23.384a13.5 13.5 0 1 0 0 2h24.384a1 1 0 0 0 1-1v-19.557h14.417a1 1 0 0 0 1-1v-16.9a1 1 0 0 0 -1-1zm-91.084-21.711a1 1 0 0 0 -1 1v20.711h-14.417a1 1 0 0 0 -1 1v7.45h-7.417v-59.372h38.184a10.87 10.87 0 0 0 10.808 9.859h11.675v9.188l-21.756 10.164z" fill="#e6e7e8"/><rect fill="#0089ef" height="19.717" rx="9.858" transform="matrix(-1 0 0 -1 133.416 30.979)" width="45.067" x="44.174" y="5.631"/><path d="m66.708 57.217 22.533-10.522-22.533-10.521-22.534 10.521z" fill="#fa759e"/><path d="m88.791 68.411h31.167v16.9h-31.167z" fill="#6dc9f7" transform="matrix(-1 0 0 -1 208.75 153.722)"/><path d="m13.457 68.411h31.167v16.9h-31.167z" fill="#6dc9f7" transform="matrix(-1 0 0 -1 58.082 153.722)"/><circle cx="66.708" cy="105.868" fill="#ffd7e5" r="12.5"/><path d="m66.708 96.368a12.5 12.5 0 0 1 12.4 11 12.5 12.5 0 1 0 -24.8 0 12.5 12.5 0 0 1 12.4-11z" fill="#fff"/><g fill="#3a2c60"><path d="m63.291 6.632h7.25a1 1 0 0 0 0-2h-7.25a1 1 0 0 0 0 2z"/><path d="m119.958 67.411h-14.417v-20.711a1 1 0 0 0 -1-1h-15.077l-21.756-10.163v-9.189h11.675a10.858 10.858 0 1 0 0-21.716h-4.967a1 1 0 0 0 0 2h4.967a8.858 8.858 0 1 1 0 17.716h-25.35a8.858 8.858 0 1 1 0-17.716h5.508a1 1 0 0 0 0-2h-5.508a10.87 10.87 0 0 0 -10.808 9.858h-39.184a1 1 0 0 0 -1 1v61.371a1 1 0 0 0 1 1h8.416v7.45a1 1 0 0 0 1 1h31.167a1 1 0 0 0 1-1v-16.9a1 1 0 0 0 -1-1h-14.75v-19.711h14.078l22.333 10.423a1 1 0 0 0 .846 0l22.333-10.423h14.077v19.711h-14.75a1 1 0 0 0 -1 1v16.9a1 1 0 0 0 1 1h14.75v18.557h-23.384a13.5 13.5 0 1 0 0 2h24.384a1 1 0 0 0 1-1v-19.557h14.417a1 1 0 0 0 1-1v-16.9a1 1 0 0 0 -1-1zm-76.334 16.9h-29.167v-14.9h29.167zm-14.75-38.611a1 1 0 0 0 -1 1v20.711h-14.417a1 1 0 0 0 -1 1v7.45h-7.416v-59.371h38.184a10.87 10.87 0 0 0 10.808 9.858h11.675v9.189l-21.756 10.163zm37.834 10.413-20.17-9.413 20.17-9.418 20.17 9.418zm0 61.256a11.5 11.5 0 1 1 11.5-11.5 11.514 11.514 0 0 1 -11.5 11.5zm52.25-33.058h-29.167v-14.9h29.167z"/></g></svg>