<?xml version="1.0" encoding="utf-8"?>
<!-- Uploaded to: SVG Repo, www.svgrepo.com, Generator: SVG Repo Mixer Tools -->
<svg fill="#000000" width="800px" height="800px" viewBox="0 0 32 32" version="1.1" xmlns="http://www.w3.org/2000/svg">
<title>javascript</title>
<path d="M17.313 14.789h-2.809c0 2.422-0.011 4.829-0.011 7.254 0.033 0.329 0.051 0.712 0.051 1.099 0 0.81-0.081 1.601-0.236 2.365l0.013-0.076c-0.412 0.861-1.475 0.751-1.957 0.6-0.451-0.242-0.808-0.609-1.031-1.055l-0.006-0.014c-0.044-0.094-0.097-0.174-0.16-0.246l0.001 0.001-2.281 1.406c0.367 0.79 0.934 1.434 1.637 1.885l0.018 0.011c0.763 0.427 1.675 0.678 2.645 0.678 0.484 0 0.954-0.063 1.401-0.18l-0.038 0.009c0.988-0.248 1.793-0.89 2.254-1.744l0.009-0.019c0.359-0.914 0.566-1.973 0.566-3.080 0-0.388-0.026-0.77-0.075-1.145l0.005 0.044c0.015-2.567 0-5.135 0-7.722zM28.539 23.843c-0.219-1.368-1.11-2.518-3.753-3.59-0.92-0.431-1.942-0.731-2.246-1.425-0.063-0.158-0.099-0.341-0.099-0.532 0-0.124 0.015-0.244 0.044-0.359l-0.002 0.010c0.208-0.55 0.731-0.935 1.343-0.935 0.199 0 0.388 0.040 0.559 0.113l-0.009-0.004c0.552 0.19 0.988 0.594 1.215 1.112l0.005 0.013c1.292-0.845 1.292-0.845 2.193-1.406-0.216-0.369-0.459-0.689-0.734-0.977l0.002 0.002c-0.767-0.814-1.852-1.32-3.056-1.32-0.171 0-0.34 0.010-0.505 0.030l0.020-0.002-0.881 0.111c-0.856 0.194-1.587 0.639-2.133 1.252l-0.003 0.004c-0.535 0.665-0.859 1.519-0.859 2.449 0 1.279 0.613 2.415 1.56 3.131l0.010 0.007c1.706 1.275 4.2 1.555 4.519 2.755 0.3 1.462-1.087 1.931-2.457 1.762-0.957-0.218-1.741-0.83-2.184-1.652l-0.009-0.017-2.287 1.313c0.269 0.536 0.607 0.994 1.011 1.385l0.001 0.001c2.174 2.194 7.61 2.082 8.586-1.255 0.113-0.364 0.178-0.782 0.178-1.215 0-0.3-0.031-0.593-0.091-0.875l0.005 0.028zM1.004 1.004h29.991v29.991h-29.991z"></path>
</svg>